<svg xmlns="http://www.w3.org/2000/svg" width="300" height="300" viewBox="-30 0 300 300"><g fill="none" stroke="#F26A1B" stroke-width="26" stroke-linecap="round"><path d="M78 120C52 128 34 112 30 86"/><path d="M92 134C64 142 30 140 10 118"/><path d="M162 120C188 128 206 112 210 86"/><path d="M148 134C176 142 210 140 230 118"/></g><circle cx="120" cy="88" r="64" fill="#F26A1B"/><circle cx="96" cy="86" r="19" fill="#fff"/><circle cx="144" cy="86" r="19" fill="#fff"/><circle cx="96" cy="92" r="9" fill="#171532"/><circle cx="144" cy="92" r="9" fill="#171532"/><g transform="translate(0 300) scale(1 -1)"><g fill="none" stroke="#4B4BE8" stroke-width="26" stroke-linecap="round"><path d="M78 120C52 128 34 112 30 86"/><path d="M92 134C64 142 30 140 10 118"/><path d="M162 120C188 128 206 112 210 86"/><path d="M148 134C176 142 210 140 230 118"/></g><circle cx="120" cy="88" r="64" fill="#4B4BE8"/><circle cx="96" cy="86" r="19" fill="#fff"/><circle cx="144" cy="86" r="19" fill="#fff"/><circle cx="96" cy="92" r="9" fill="#171532"/><circle cx="144" cy="92" r="9" fill="#171532"/></g></svg>
